<?xml version="1.0" encoding="UTF-8"?><svg id="Layer_1" xmlns="http://www.w3.org/2000/svg" viewBox="0 0 16 16"><defs><style>.cls-1{fill:#000;stroke-width:0px;}</style></defs><polygon class="cls-1" points="6.5857 10.3712 8 8.9569 9.4143 10.3712 10.1212 9.6643 8.7069 8.25 10.1212 6.8357 9.4143 6.1288 8 7.5431 6.5857 6.1288 5.8788 6.8357 7.2931 8.25 5.8788 9.6643 6.5857 10.3712"/><path class="cls-1" d="M10.674,2.9893l-.3649-1.2246c-.135-.4498-.5548-.7647-1.0246-.7647h-2.5691c-.4748,0-.8897.3099-1.0246.7647l-.3649,1.2246h-3.3238v.9996h.9547l.5748,11.0111h8.9318l.5748-11.0111h.9597v-.9996h-3.3238ZM6.6455,2.0546c.01-.03.035-.05.07-.05h2.5691c.03,0,.06.02.065.05l.2599.8697h-3.2238l.2599-.8697ZM11.4937,11.9961c-.1,1.4345-1.6794,1.5095-1.9943,1.5095h-3.0189c-.5598,0-1.8743-.1449-1.9743-1.5095l-.5348-7.8872h8.0571l-.5348,7.8872Z"/></svg>