<?xml version="1.0" encoding="UTF-8"?><svg id="Layer_1" xmlns="http://www.w3.org/2000/svg" viewBox="0 0 16 16"><defs><style>.cls-1{fill:#000;stroke-width:0px;}</style></defs><path class="cls-1" d="M5.7369,12.4526c-.1684-.0886-.3323-.1856-.4891-.2925-1.3497-.9142-2.1832-2.5314-2.1232-4.1601.0278-1.7685,1.0795-3.3451,2.5619-4.1663l-.1385,1.5992,1.1856.209.5913-3.3534.1045-.5928c-.3249-.0563-3.5274-.6233-3.9462-.6958l-.2091,1.1856,1.5883.4271c-1.819,1.1059-3.0345,3.132-2.9703,5.3873.0318,2.2292,1.3667,4.3257,3.3341,5.3368l.5105-.8842Z"/><path class="cls-1" d="M14.1083,8c-.0182-1.7892-.887-3.5201-2.2794-4.6332-.2063-.1673-.4233-.3213-.6489-.4614l-.4754.8233c1.4259.9004,2.327,2.579,2.275,4.2713-.0157,1.6116-.9252,3.1522-2.2898,3.9889-.1058.0666-.2145.1281-.3247.1864l.1392-1.6082-1.1856-.209-.5913,3.3534-.1045.5928c.3249.0563,3.5274.6233,3.9462.6958l.2091-1.1856-1.5907-.4278c1.8208-1.1236,2.9745-3.2407,2.9208-5.3867Z"/></svg>